# xmcd
#
# Track frame offsets: 
#        150
#        11905
#        21699
#        33125
#        44374
#        55353
#        64817
#        77933
#        88208
#        100221
#        111529
#        121546
#
# Disc length: 1775 seconds
#
# Revision: 0
# Processed by: cddbd v1.5.2PL0 Copyright (c) Steve Scherf et al.
# Submitted via: ExactAudioCopy v1.3
#
DISCID=a506ed0c
DTITLE=Hank Williams Jr. - Sings The Songs Of Hank Williams
DYEAR=1964
DGENRE=Country
TTITLE0=Long Gone Lonesome Blues
TTITLE1=Your Cheatin' Heart
TTITLE2=I'm So Lonesome I Could Cry
TTITLE3=I'm A Long Gone Daddy
TTITLE4=Cold, Cold Heart
TTITLE5=Hey Good Lookin'
TTITLE6=You Win Again
TTITLE7=Moanin' The Blues
TTITLE8=I Can't Help It
TTITLE9=There'll Be No Teardrops Tonight
TTITLE10=Jambalaya (On The Bayou)
TTITLE11=Mansion On The Hill
EXTD=
EXTT0=
EXTT1=
EXTT2=
EXTT3=
EXTT4=
EXTT5=
EXTT6=
EXTT7=
EXTT8=
EXTT9=
EXTT10=
EXTT11=
PLAYORDER=
